<svg width="170" height="19" viewBox="0 0 170 19" fill="none" xmlns="http://www.w3.org/2000/svg">
<path d="M12.28 0.899999V2.3H7.4V15H5.78V2.3H0.86V0.899999H12.28ZM20.0888 4.86C22.3288 4.86 23.7888 6.16 23.7888 8.92V15H22.1688V9.14C22.1688 7.06 21.3488 6.26 19.6488 6.26C17.5488 6.26 16.0688 7.92 16.0688 10.6V15H14.4288V0.3H16.0688V6.78L15.8088 7.92H16.2688C16.6688 6.12 17.9288 4.86 20.0888 4.86ZM26.0405 9.9C26.0405 6.7 28.0405 4.86 30.8605 4.86C33.6605 4.86 35.5005 6.64 35.5005 9.7V10.34H27.6405C27.7405 12.22 28.6405 13.84 31.1005 13.84C32.7405 13.84 33.8405 13.04 34.2005 11.52H35.8405C35.4605 13.06 34.2605 15.2 31.1005 15.2C27.5405 15.2 26.0405 12.76 26.0405 9.9ZM27.6405 9.1H33.9005C33.9005 7.5 32.8405 6.24 30.8605 6.24C28.9005 6.24 27.6405 7.5 27.6405 9.1ZM44.9952 15V0.899999H48.2952L55.3352 14.54H55.7952L55.5352 13.36V0.899999H57.1552V15H53.8552L46.8352 1.36H46.3752L46.6352 2.54V15H44.9952ZM59.3998 10.02C59.3998 7.14 61.4798 4.86 64.6598 4.86C67.8198 4.86 69.8798 7.14 69.8798 10.02C69.8798 12.92 67.8198 15.2 64.6598 15.2C61.4798 15.2 59.3998 12.92 59.3998 10.02ZM61.0398 10.02C61.0398 12.1 62.2998 13.8 64.6598 13.8C66.9998 13.8 68.2598 12.1 68.2598 10.02C68.2598 7.96 66.9998 6.26 64.6598 6.26C62.2998 6.26 61.0398 7.96 61.0398 10.02ZM74.6316 13.82L78.1316 13.6V15L74.3716 15.2C73.4316 15.26 73.0116 14.76 73.0116 13.84V6.46H70.8116V5.06H73.0116V2.5L74.6316 2V5.06H77.7316V6.46H74.6316V13.82ZM80.0248 12.24C80.0248 10.66 80.9648 9.58 83.2848 9.34L87.2448 8.96C87.1448 7.14 86.1648 6.24 84.4448 6.24C83.0048 6.24 81.6648 6.88 81.6648 8.76H80.0648C80.0648 6.7 81.6248 4.86 84.4448 4.86C87.2248 4.86 88.8848 6.7 88.8848 9.36V13.6H90.3448V15H88.5848C87.8248 15 87.4048 14.58 87.4048 13.84V13.3L87.6648 12.26H87.1848C86.8048 13.78 85.7448 15.2 83.3448 15.2C80.4648 15.2 80.0248 13.28 80.0248 12.24ZM81.6648 12.04C81.6648 13.18 82.3848 13.8 83.5448 13.8C85.8048 13.8 87.2448 12.24 87.2448 10.18L83.5648 10.56C82.3048 10.68 81.6648 11.06 81.6648 12.04ZM92.2217 15V6.24C92.2217 5.3 92.6617 4.84 93.6017 4.88L99.1217 5.06V6.46L93.8617 6.28V15H92.2217ZM108.97 5.06H110.75L106.43 14.9V17.68C106.43 18.44 105.99 18.9 105.05 18.86L101.21 18.68V17.28L104.79 17.46V14.9L100.45 5.06H102.25L105.37 12.8V13.56H105.85V12.8L108.97 5.06ZM129.467 0.899999H131.087V15H129.467V8.74H121.147V15H119.507V0.899999H121.147V7.34H129.467V0.899999ZM137.529 13.8C139.629 13.8 141.109 12.14 141.109 9.48V5.06H142.729V15H141.109V13.28L141.369 12.14H140.909C140.509 13.94 139.249 15.2 137.089 15.2C134.829 15.2 133.369 13.9 133.369 11.14V5.06H135.009V10.92C135.009 13 135.809 13.8 137.529 13.8ZM145.405 15V0.3H147.045V6.52L146.785 7.66H147.245C147.665 6.1 149.005 4.86 151.285 4.86C154.165 4.86 156.005 7.08 156.005 10.02C156.005 12.98 154.165 15.2 151.285 15.2C149.005 15.2 147.665 13.96 147.245 12.42H146.785L147.045 13.54V15H145.405ZM147.045 10.02C147.045 12.68 148.745 13.8 150.785 13.8C152.845 13.8 154.365 12.68 154.365 10.02C154.365 7.38 152.845 6.26 150.785 6.26C148.745 6.26 147.045 7.38 147.045 10.02Z" fill="black"/>
<path d="M162.576 1.72V2.32H160.736V7H160.096V2.32H158.256V1.72H162.576ZM168.796 1.72V7H168.188V3.68L168.26 2.288H168.252L166.516 7H165.972L164.236 2.288H164.228L164.3 3.68V7H163.692V1.72H164.676L165.836 4.928L166.236 6.248H166.252L166.66 4.936L167.812 1.72H168.796Z" fill="#484848"/>
</svg>
