<svg width="78" height="78" viewBox="0 0 78 78" fill="none" xmlns="http://www.w3.org/2000/svg">
<g filter="url(#filter0_d_10_1350)">
<rect x="15" y="12" width="47.9322" height="48" rx="23.9661" fill="white" shape-rendering="crispEdges"/>
<path d="M30.7183 24.75C30.7183 24.5511 30.7974 24.3603 30.938 24.2197C31.0787 24.079 31.2694 24 31.4683 24H46.4683C46.6673 24 46.858 24.079 46.9987 24.2197C47.1393 24.3603 47.2183 24.5511 47.2183 24.75C47.2183 25.557 47.2013 26.325 47.1673 27.054C47.76 27.1521 48.3271 27.368 48.835 27.6888C49.343 28.0096 49.7816 28.4288 50.1249 28.9218C50.4682 29.4148 50.7094 29.9716 50.8341 30.5592C50.9589 31.1469 50.9647 31.7536 50.8512 32.3436C50.7377 32.9335 50.5072 33.4948 50.1734 33.9943C49.8395 34.4937 49.409 34.9213 48.9073 35.2517C48.4056 35.5822 47.8427 35.8088 47.252 35.9182C46.6613 36.0277 46.0547 36.0177 45.4678 35.889C44.2828 38.6865 42.6508 40.0545 41.2183 40.4055V43.665L43.3558 44.199C43.6468 44.271 43.9213 44.4015 44.1613 44.5815L46.9183 46.65C47.0443 46.7444 47.1373 46.8761 47.1842 47.0264C47.2312 47.1766 47.2296 47.3378 47.1799 47.4872C47.1301 47.6365 47.0346 47.7664 46.9069 47.8584C46.7792 47.9505 46.6258 48 46.4683 48H31.4683C31.3109 48 31.1575 47.9505 31.0298 47.8584C30.9021 47.7664 30.8066 47.6365 30.7568 47.4872C30.7071 47.3378 30.7055 47.1766 30.7525 47.0264C30.7994 46.8761 30.8924 46.7444 31.0183 46.65L33.7753 44.5815C34.0153 44.4015 34.2898 44.271 34.5808 44.199L36.7183 43.665V40.4055C35.2858 40.0545 33.6538 38.6865 32.4688 35.8875C31.8817 36.0169 31.2746 36.0274 30.6834 35.9183C30.0921 35.8092 29.5288 35.5827 29.0265 35.2523C28.5243 34.9218 28.0933 34.494 27.7592 33.9942C27.425 33.4944 27.1943 32.9328 27.0809 32.3423C26.9674 31.7519 26.9734 31.1448 27.0985 30.5567C27.2236 29.9686 27.4653 29.4116 27.8092 28.9185C28.1532 28.4254 28.5925 28.0062 29.1012 27.6857C29.6098 27.3652 30.1776 27.1499 30.7708 27.0525C30.7355 26.2855 30.718 25.5178 30.7183 24.75ZM30.8668 28.56C30.0841 28.7032 29.3904 29.1515 28.9382 29.8062C28.486 30.461 28.3124 31.2685 28.4556 32.0512C28.5988 32.834 29.0471 33.5277 29.7018 33.9799C30.3566 34.4321 31.1641 34.6057 31.9468 34.4625C31.4473 32.8875 31.0648 30.9435 30.8668 28.56ZM45.9913 34.4625C46.7741 34.6057 47.5816 34.4321 48.2364 33.9799C48.8911 33.5277 49.3394 32.834 49.4826 32.0512C49.6258 31.2685 49.4522 30.461 49 29.8062C48.5478 29.1515 47.8541 28.7032 47.0713 28.56C46.8718 30.945 46.4893 32.8875 45.9913 34.4625Z" fill="#CE4408"/>
</g>
<defs>
<filter id="filter0_d_10_1350" x="0" y="0" width="77.9321" height="78" filterUnits="userSpaceOnUse" color-interpolation-filters="sRGB">
<feFlood flood-opacity="0" result="BackgroundImageFix"/>
<feColorMatrix in="SourceAlpha" type="matrix" values="0 0 0 0 0 0 0 0 0 0 0 0 0 0 0 0 0 0 127 0" result="hardAlpha"/>
<feOffset dy="3"/>
<feGaussianBlur stdDeviation="7.5"/>
<feComposite in2="hardAlpha" operator="out"/>
<feColorMatrix type="matrix" values="0 0 0 0 0 0 0 0 0 0 0 0 0 0 0 0 0 0 0.15 0"/>
<feBlend mode="normal" in2="BackgroundImageFix" result="effect1_dropShadow_10_1350"/>
<feBlend mode="normal" in="SourceGraphic" in2="effect1_dropShadow_10_1350" result="shape"/>
</filter>
</defs>
</svg>
