<svg width="80" height="79" viewBox="0 0 80 79" fill="none" xmlns="http://www.w3.org/2000/svg">
<g filter="url(#filter0_d_10_1352)">
<rect x="15" y="12" width="49.7996" height="48.69" rx="24.345" fill="white" shape-rendering="crispEdges"/>
<path d="M38.5461 24.7782C38.6841 24.5414 38.8817 24.345 39.1194 24.2084C39.357 24.0719 39.6262 24 39.9003 24C40.1743 24 40.4436 24.0719 40.6812 24.2084C40.9188 24.345 41.1165 24.5414 41.2545 24.7782L44.7591 30.7943L51.5651 32.2689C51.8328 32.327 52.0806 32.4544 52.2838 32.6382C52.487 32.822 52.6384 33.0558 52.723 33.3164C52.8076 33.577 52.8225 33.8552 52.766 34.1232C52.7096 34.3913 52.5839 34.64 52.4014 34.8443L47.7621 40.0366L48.4643 46.9643C48.492 47.2371 48.4476 47.5124 48.3357 47.7627C48.2237 48.013 48.048 48.2295 47.8262 48.3907C47.6044 48.5518 47.3442 48.652 47.0715 48.6811C46.7989 48.7103 46.5234 48.6674 46.2725 48.5567L39.9003 45.748L33.5281 48.5567C33.2772 48.6674 33.0017 48.7103 32.7291 48.6811C32.4564 48.652 32.1962 48.5518 31.9744 48.3907C31.7525 48.2295 31.5769 48.013 31.4649 47.7627C31.3529 47.5124 31.3086 47.2371 31.3363 46.9643L32.0385 40.0366L27.3991 34.8456C27.2163 34.6412 27.0904 34.3925 27.0338 34.1243C26.9772 33.856 26.9919 33.5776 27.0766 33.3168C27.1612 33.056 27.3128 32.822 27.5161 32.6381C27.7195 32.4542 27.9675 32.3269 28.2355 32.2689L35.0415 30.7943L38.5461 24.7782Z" fill="#FFDC61"/>
</g>
<defs>
<filter id="filter0_d_10_1352" x="0" y="0" width="79.7998" height="78.69" filterUnits="userSpaceOnUse" color-interpolation-filters="sRGB">
<feFlood flood-opacity="0" result="BackgroundImageFix"/>
<feColorMatrix in="SourceAlpha" type="matrix" values="0 0 0 0 0 0 0 0 0 0 0 0 0 0 0 0 0 0 127 0" result="hardAlpha"/>
<feOffset dy="3"/>
<feGaussianBlur stdDeviation="7.5"/>
<feComposite in2="hardAlpha" operator="out"/>
<feColorMatrix type="matrix" values="0 0 0 0 0 0 0 0 0 0 0 0 0 0 0 0 0 0 0.15 0"/>
<feBlend mode="normal" in2="BackgroundImageFix" result="effect1_dropShadow_10_1352"/>
<feBlend mode="normal" in="SourceGraphic" in2="effect1_dropShadow_10_1352" result="shape"/>
</filter>
</defs>
</svg>
