<svg width="78" height="78" viewBox="0 0 78 78" fill="none" xmlns="http://www.w3.org/2000/svg">
<g filter="url(#filter0_d_10_1354)">
<rect x="15" y="12" width="47.9986" height="48" rx="23.9993" fill="white" shape-rendering="crispEdges"/>
<path fill-rule="evenodd" clip-rule="evenodd" d="M48.6027 39.9773C49.3259 39.5948 49.9312 39.0224 50.3533 38.3216C50.7755 37.6208 50.9986 36.8181 50.9986 36C50.9986 35.1819 50.7755 34.3792 50.3533 33.6784C49.9312 32.9776 49.3259 32.4052 48.6027 32.0227C48.8438 31.2409 48.8671 30.4082 48.6702 29.6141C48.4732 28.82 48.0635 28.0947 47.4851 27.5161C46.9067 26.9375 46.1814 26.5276 45.3874 26.3305C44.5934 26.1333 43.7606 26.1564 42.9788 26.3973C42.5964 25.6737 42.024 25.0681 41.323 24.6456C40.622 24.2232 39.8191 24 39.0007 24C38.1823 24 37.3794 24.2232 36.6785 24.6456C35.9775 25.0681 35.4051 25.6737 35.0227 26.3973C34.2409 26.1562 33.4082 26.1329 32.6141 26.3298C31.82 26.5267 31.0947 26.9365 30.5161 27.5149C29.9375 28.0933 29.5276 28.8186 29.3305 29.6126C29.1333 30.4066 29.1564 31.2394 29.3973 32.0212C28.6737 32.4036 28.0681 32.976 27.6456 33.677C27.2232 34.3779 27 35.1808 27 35.9992C27 36.8176 27.2232 37.6206 27.6456 38.3215C28.0681 39.0225 28.6737 39.5949 29.3973 39.9773C29.1562 40.7591 29.1329 41.5918 29.3298 42.3859C29.5267 43.18 29.9365 43.9053 30.5149 44.4839C31.0933 45.0625 31.8186 45.4724 32.6126 45.6695C33.4066 45.8667 34.2394 45.8436 35.0212 45.6027C35.4036 46.3263 35.976 46.9319 36.677 47.3544C37.3779 47.7768 38.1808 48 38.9992 48C39.8176 48 40.6206 47.7768 41.3215 47.3544C42.0225 46.9319 42.5949 46.3263 42.9773 45.6027C43.7591 45.8438 44.5918 45.8671 45.3859 45.6702C46.18 45.4732 46.9053 45.0635 47.4839 44.4851C48.0625 43.9067 48.4724 43.1814 48.6695 42.3874C48.8667 41.5934 48.8436 40.7591 48.6027 39.9773ZM44.7844 33.29C44.96 33.0486 45.0325 32.7473 44.986 32.4524C44.9394 32.1575 44.7777 31.8932 44.5362 31.7175C44.4167 31.6306 44.2812 31.568 44.1374 31.5335C43.9937 31.4989 43.8446 31.4929 43.6986 31.516C43.4037 31.5625 43.1394 31.7243 42.9638 31.9657L37.7402 39.1494L34.9208 36.3299C34.8169 36.2226 34.6928 36.1369 34.5555 36.078C34.4183 36.0192 34.2707 35.9882 34.1213 35.987C33.972 35.9857 33.8239 36.0143 33.6857 36.0709C33.5475 36.1275 33.4219 36.2111 33.3164 36.3168C33.2108 36.4224 33.1273 36.548 33.0708 36.6863C33.0144 36.8246 32.986 36.9727 32.9873 37.122C32.9887 37.2714 33.0198 37.419 33.0788 37.5562C33.1378 37.6934 33.2236 37.8174 33.3311 37.9211L37.0804 41.6704C37.1953 41.7854 37.3338 41.8741 37.4862 41.9305C37.6387 41.9868 37.8016 42.0094 37.9637 41.9967C38.1258 41.984 38.2832 41.9363 38.425 41.857C38.5669 41.7776 38.6899 41.6684 38.7855 41.537L44.7844 33.29Z" fill="#640DBB"/>
</g>
<defs>
<filter id="filter0_d_10_1354" x="0" y="0" width="77.9985" height="78" filterUnits="userSpaceOnUse" color-interpolation-filters="sRGB">
<feFlood flood-opacity="0" result="BackgroundImageFix"/>
<feColorMatrix in="SourceAlpha" type="matrix" values="0 0 0 0 0 0 0 0 0 0 0 0 0 0 0 0 0 0 127 0" result="hardAlpha"/>
<feOffset dy="3"/>
<feGaussianBlur stdDeviation="7.5"/>
<feComposite in2="hardAlpha" operator="out"/>
<feColorMatrix type="matrix" values="0 0 0 0 0 0 0 0 0 0 0 0 0 0 0 0 0 0 0.15 0"/>
<feBlend mode="normal" in2="BackgroundImageFix" result="effect1_dropShadow_10_1354"/>
<feBlend mode="normal" in="SourceGraphic" in2="effect1_dropShadow_10_1354" result="shape"/>
</filter>
</defs>
</svg>
