<svg width="14" height="9" viewBox="0 0 14 9" fill="none" xmlns="http://www.w3.org/2000/svg">
<path d="M13.6918 0.344159C13.4945 0.123794 13.2268 0 12.9477 0C12.6686 0 12.401 0.123794 12.2036 0.344159L6.99365 6.16269L1.78371 0.344159C1.5852 0.130039 1.31933 0.0115595 1.04337 0.0142374C0.767402 0.0169153 0.503418 0.140537 0.308273 0.358478C0.113129 0.576417 0.00243855 0.871238 4.00543e-05 1.17944C-0.00235748 1.48764 0.103729 1.78456 0.295453 2.00626L6.24952 8.65584C6.44689 8.87621 6.71456 9 6.99365 9C7.27273 9 7.5404 8.87621 7.73777 8.65584L13.6918 2.00626C13.8892 1.78583 14 1.4869 14 1.17521C14 0.863519 13.8892 0.56459 13.6918 0.344159Z" fill="#1B1D21"/>
</svg>
